<svg xmlns="http://www.w3.org/2000/svg" width="22" height="22" viewBox="0 0 22 22"><g><g><g/><g><g><path fill="#8c30f5" d="M8 9H1a1 1 0 0 1-1-1V1a1 1 0 0 1 1-1h7a1 1 0 0 1 1 1v7a1 1 0 0 1-1 1z"/></g><g><path fill="#8c30f5" d="M8 22H1a1 1 0 0 1-1-1v-7a1 1 0 0 1 1-1h7a1 1 0 0 1 1 1v7a1 1 0 0 1-1 1z"/></g><g><path fill="#2ec5ce" d="M12 1h10v2H12z"/></g><g><path fill="#2ec5ce" d="M22 14H12v2h10z"/></g><g><path fill="#d6b1ff" d="M22 19H12v2h10z"/></g><g><path fill="#d6b1ff" d="M22 6H12v2h10z"/></g></g></g></g></svg>