<svg xmlns="http://www.w3.org/2000/svg" width="162" height="48" viewBox="0 0 162 48"><g><g><g><g><path fill="#a6a6a6" d="M149.099 0H12.908c-.497 0-.987 0-1.482.003-.415.002-.826.009-1.244.015-.91.01-1.816.08-2.713.212a9.85 9.85 0 0 0-2.573.752 8.753 8.753 0 0 0-2.192 1.415A7.623 7.623 0 0 0 1.11 4.342a7.311 7.311 0 0 0-.846 2.284 13.87 13.87 0 0 0-.242 2.402c-.013.368-.014.737-.021 1.105v27.738c.007.372.008.733.02 1.106.011.805.092 1.608.243 2.402.149.795.434 1.566.846 2.285.41.718.95 1.372 1.595 1.937.64.573 1.38 1.05 2.192 1.415.81.365 1.677.62 2.573.757.897.13 1.804.201 2.713.212.418.008.83.013 1.244.013.495.002.985.002 1.482.002h136.191c.487 0 .981 0 1.468-.002.412 0 .835-.005 1.248-.013.907-.01 1.812-.081 2.707-.212.899-.138 1.77-.393 2.584-.757a8.544 8.544 0 0 0 2.189-1.415 7.786 7.786 0 0 0 1.6-1.937 7.31 7.31 0 0 0 .838-2.285c.151-.794.235-1.597.251-2.402.005-.373.005-.734.005-1.106.011-.437.011-.87.011-1.313V11.443c0-.439 0-.875-.011-1.31 0-.368 0-.737-.005-1.105-.016-.805-.1-1.608-.251-2.402a7.331 7.331 0 0 0-.838-2.284c-.836-1.444-2.161-2.619-3.789-3.36a10.002 10.002 0 0 0-2.584-.752c-.895-.133-1.8-.203-2.707-.212-.413-.006-.836-.013-1.248-.016C150.08 0 149.586 0 149.099 0z"/></g><g><path d="M11.318 46.95c-.413 0-.816-.005-1.226-.013-.85-.01-1.696-.075-2.535-.196a8.722 8.722 0 0 1-2.247-.658 7.364 7.364 0 0 1-1.894-1.22 6.492 6.492 0 0 1-1.384-1.676 6.333 6.333 0 0 1-.736-1.989 13.235 13.235 0 0 1-.226-2.25c-.009-.254-.02-1.096-.02-1.096V10.125s.012-.83.02-1.074c.01-.753.085-1.504.224-2.247.13-.694.378-1.367.737-1.994a6.547 6.547 0 0 1 1.377-1.678A7.58 7.58 0 0 1 5.31 1.904a8.631 8.631 0 0 1 2.242-.652 19.23 19.23 0 0 1 2.543-.197l1.224-.015h139.367l1.239.015c.844.01 1.687.074 2.52.195.788.119 1.552.34 2.266.658 1.407.642 2.552 1.658 3.275 2.904.353.624.598 1.291.726 1.98.14.749.219 1.506.235 2.265.004.34.004.705.004 1.068.011.45.011.879.011 1.31v25.12c0 .436 0 .862-.011 1.29 0 .391 0 .749-.005 1.117a13.54 13.54 0 0 1-.232 2.224 6.326 6.326 0 0 1-.732 2.005 6.699 6.699 0 0 1-1.377 1.663 7.368 7.368 0 0 1-1.898 1.227 8.686 8.686 0 0 1-2.262.66c-.838.121-1.686.187-2.535.196-.397.008-.813.013-1.217.013l-1.47.002z"/></g></g><g><g><g><g><path fill="#fff" d="M39.357 24.363a5.938 5.938 0 0 1 2.828-4.982 6.078 6.078 0 0 0-4.79-2.59c-2.015-.211-3.968 1.206-4.995 1.206-1.047 0-2.628-1.184-4.33-1.15a6.378 6.378 0 0 0-5.368 3.274c-2.32 4.018-.59 9.923 1.634 13.171 1.112 1.59 2.412 3.367 4.113 3.304 1.664-.069 2.286-1.061 4.295-1.061 1.99 0 2.574 1.061 4.31 1.021 1.785-.029 2.91-1.597 3.984-3.203a13.157 13.157 0 0 0 1.822-3.71 5.738 5.738 0 0 1-3.503-5.28z"/></g><g><path fill="#fff" d="M36.076 14.649a5.847 5.847 0 0 0 1.337-4.189 5.949 5.949 0 0 0-3.849 1.992 5.564 5.564 0 0 0-1.372 4.033 4.919 4.919 0 0 0 3.884-1.836z"/></g></g></g><g><g><path fill="#fff" d="M60.4 32.564h-5.68l-1.364 4.028H50.95l5.38-14.902h2.5l5.38 14.902h-2.447zm-5.092-1.859h4.503l-2.22-6.536h-.062z"/></g><g><path fill="#fff" d="M75.824 31.169c0 3.376-1.807 5.545-4.534 5.545a3.684 3.684 0 0 1-3.418-1.901h-.052v5.381h-2.23V25.736h2.159v1.807h.04a3.854 3.854 0 0 1 3.46-1.921c2.757 0 4.575 2.18 4.575 5.546zm-2.292 0c0-2.2-1.137-3.646-2.871-3.646-1.704 0-2.85 1.476-2.85 3.646 0 2.189 1.146 3.655 2.85 3.655 1.734 0 2.87-1.436 2.87-3.655z"/></g><g><path fill="#fff" d="M87.784 31.168c0 3.377-1.807 5.546-4.534 5.546a3.683 3.683 0 0 1-3.418-1.901h-.052v5.381h-2.23V25.736h2.159v1.807h.04a3.854 3.854 0 0 1 3.46-1.921c2.757 0 4.575 2.18 4.575 5.546zm-2.292 0c0-2.2-1.137-3.645-2.871-3.645-1.704 0-2.85 1.476-2.85 3.645 0 2.19 1.146 3.656 2.85 3.656 1.734 0 2.87-1.436 2.87-3.656z"/></g><g><path fill="#fff" d="M95.683 32.448c.165 1.478 1.6 2.448 3.562 2.448 1.88 0 3.232-.97 3.232-2.303 0-1.156-.815-1.849-2.746-2.323l-1.932-.466c-2.736-.66-4.006-1.94-4.006-4.017 0-2.571 2.24-4.337 5.422-4.337 3.149 0 5.307 1.766 5.38 4.337h-2.251c-.135-1.487-1.364-2.385-3.16-2.385-1.797 0-3.027.909-3.027 2.23 0 1.054.786 1.674 2.706 2.148l1.642.404c3.058.723 4.328 1.95 4.328 4.13 0 2.788-2.22 4.534-5.753 4.534-3.305 0-5.536-1.705-5.68-4.4z"/></g><g><path fill="#fff" d="M109.65 23.16v2.571h2.066v1.766h-2.066v5.99c0 .93.414 1.364 1.322 1.364.245-.005.49-.022.734-.052v1.756c-.409.076-.824.11-1.239.103-2.2 0-3.057-.827-3.057-2.934v-6.227h-1.58v-1.766h1.58V23.16z"/></g><g><path fill="#fff" d="M112.91 31.166c0-3.418 2.013-5.566 5.153-5.566 3.15 0 5.154 2.148 5.154 5.566 0 3.428-1.994 5.567-5.154 5.567s-5.153-2.139-5.153-5.567zm8.034 0c0-2.345-1.074-3.729-2.881-3.729-1.807 0-2.88 1.395-2.88 3.73 0 2.354 1.073 3.727 2.88 3.727s2.881-1.373 2.881-3.728z"/></g><g><path fill="#fff" d="M125.06 25.736h2.127v1.849h.052a2.591 2.591 0 0 1 2.613-1.963c.257-.001.513.027.764.083v2.086a3.117 3.117 0 0 0-1.002-.135 2.247 2.247 0 0 0-2.324 2.5V36.6h-2.23z"/></g><g><path fill="#fff" d="M140.89 33.407c-.3 1.972-2.22 3.326-4.678 3.326-3.16 0-5.122-2.118-5.122-5.515 0-3.408 1.972-5.618 5.029-5.618 3.005 0 4.896 2.065 4.896 5.359v.764h-7.674v.135a2.83 2.83 0 0 0 2.923 3.077 2.458 2.458 0 0 0 2.509-1.528zm-2.107-3.243a2.613 2.613 0 0 0-2.664-2.757 2.75 2.75 0 0 0-2.767 2.757zm-5.431 0z"/></g></g><g><g><path fill="#fff" d="M55.026 10.478a3.168 3.168 0 0 1 3.37 3.558c0 2.287-1.237 3.602-3.37 3.602H52.44v-7.16zm-1.474 6.148h1.35a2.251 2.251 0 0 0 2.361-2.575 2.257 2.257 0 0 0-2.36-2.561h-1.35z"/></g><g><path fill="#fff" d="M59.652 14.934a2.56 2.56 0 1 1 5.097 0 2.56 2.56 0 1 1-5.097 0zm4 0c0-1.172-.527-1.857-1.45-1.857-.927 0-1.448.685-1.448 1.857 0 1.18.521 1.86 1.448 1.86.924 0 1.45-.684 1.45-1.86z"/></g><g><path fill="#fff" d="M71.525 17.634h-1.107l-1.116-3.98h-.085l-1.112 3.98H67.01L65.52 12.23h1.082l.968 4.123h.08l1.11-4.123h1.023l1.111 4.123h.085l.963-4.123h1.066z"/></g><g><path fill="#fff" d="M74.26 12.23h1.027v.858h.08a1.618 1.618 0 0 1 1.612-.963 1.757 1.757 0 0 1 1.87 2.01v3.498h-1.066v-3.23c0-.868-.378-1.3-1.166-1.3a1.24 1.24 0 0 0-1.29 1.369v3.161H74.26z"/></g><g><path fill="#fff" d="M80.55 10.12h1.066v7.513H80.55z"/></g><g><path fill="#fff" d="M83.092 14.934a2.56 2.56 0 1 1 5.097 0 2.56 2.56 0 1 1-5.097 0zm4 0c0-1.172-.527-1.856-1.45-1.856-.927 0-1.448.684-1.448 1.856 0 1.18.521 1.86 1.448 1.86.923 0 1.45-.684 1.45-1.86z"/></g><g><path fill="#fff" d="M89.32 16.11c0-.973.724-1.534 2.01-1.613l1.463-.085v-.466c0-.57-.377-.893-1.106-.893-.595 0-1.008.218-1.126.6h-1.032c.109-.928.982-1.523 2.207-1.523 1.355 0 2.12.674 2.12 1.816v3.692h-1.027v-.76h-.085a1.818 1.818 0 0 1-1.623.849 1.632 1.632 0 0 1-1.801-1.617zm3.473-.914l-1.32.085c-.743.05-1.08.302-1.08.779 0 .486.421.77 1.001.77a1.274 1.274 0 0 0 1.4-1.182z"/></g><g><path fill="#fff" d="M95.25 14.929c0-1.708.878-2.79 2.243-2.79a1.78 1.78 0 0 1 1.657.949h.08V10.12h1.066v7.513h-1.022v-.854h-.084a1.875 1.875 0 0 1-1.697.943c-1.375 0-2.243-1.082-2.243-2.793zm1.102 0c0 1.146.54 1.836 1.443 1.836.9 0 1.455-.7 1.455-1.832 0-1.126-.562-1.835-1.455-1.835-.897 0-1.443.694-1.443 1.83z"/></g><g><path fill="#fff" d="M104.712 14.934a2.56 2.56 0 1 1 5.097 0 2.56 2.56 0 1 1-5.097 0zm4 0c0-1.172-.527-1.857-1.45-1.857-.927 0-1.448.685-1.448 1.857 0 1.18.521 1.86 1.448 1.86.923 0 1.45-.684 1.45-1.86z"/></g><g><path fill="#fff" d="M111.24 12.23h1.027v.858h.08a1.618 1.618 0 0 1 1.612-.963 1.757 1.757 0 0 1 1.87 2.01v3.498h-1.066v-3.23c0-.868-.378-1.3-1.166-1.3a1.24 1.24 0 0 0-1.29 1.369v3.161h-1.067z"/></g><g><path fill="#fff" d="M121.855 10.89v1.37h1.171v.898h-1.17v2.779c0 .566.233.814.763.814.136 0 .272-.01.407-.025v.888a3.498 3.498 0 0 1-.58.055c-1.186 0-1.658-.417-1.658-1.46v-3.05h-.858v-.9h.858V10.89z"/></g><g><path fill="#fff" d="M124.48 10.12h1.057v2.978h.084a1.663 1.663 0 0 1 1.648-.968 1.78 1.78 0 0 1 1.86 2.014v3.489h-1.067v-3.226c0-.863-.402-1.3-1.155-1.3a1.262 1.262 0 0 0-1.36 1.37v3.156h-1.067z"/></g><g><path fill="#fff" d="M135.35 16.179a2.194 2.194 0 0 1-2.34 1.563 2.454 2.454 0 0 1-2.497-2.789 2.492 2.492 0 0 1 2.491-2.823c1.504 0 2.411 1.027 2.411 2.724v.372h-3.816v.06a1.428 1.428 0 0 0 1.44 1.548 1.295 1.295 0 0 0 1.285-.655zm-1.021-1.741a1.304 1.304 0 0 0-1.33-1.4 1.382 1.382 0 0 0-1.4 1.4z"/></g></g></g></g></g></svg>