<svg xmlns="http://www.w3.org/2000/svg" width="162" height="48" viewBox="0 0 162 48"><defs><linearGradient id="t0ota" x1="26.16" x2="6.02" y1="10.45" y2="30.59" gradientUnits="userSpaceOnUse"><stop offset="0" stop-color="#00a0ff"/><stop offset=".01" stop-color="#00a1ff"/><stop offset=".26" stop-color="#00beff"/><stop offset=".51" stop-color="#00d2ff"/><stop offset=".76" stop-color="#00dfff"/><stop offset="1" stop-color="#00e3ff"/></linearGradient><linearGradient id="t0otb" x1="40.61" x2="11.56" y1="24" y2="24" gradientUnits="userSpaceOnUse"><stop offset="0" stop-color="#ffe000"/><stop offset=".41" stop-color="#ffbd00"/><stop offset=".78" stop-color="orange"/><stop offset="1" stop-color="#ff9c00"/></linearGradient><linearGradient id="t0otc" x1="29.79" x2="2.48" y1="26.75" y2="54.06" gradientUnits="userSpaceOnUse"><stop offset="0" stop-color="#ff3a44"/><stop offset="1" stop-color="#c31162"/></linearGradient><linearGradient id="t0otd" x1="8.76" x2="20.95" y1=".22" y2="12.41" gradientUnits="userSpaceOnUse"><stop offset="0" stop-color="#32a071"/><stop offset=".07" stop-color="#2da771"/><stop offset=".48" stop-color="#15cf74"/><stop offset=".8" stop-color="#06e775"/><stop offset="1" stop-color="#00f076"/></linearGradient></defs><g><g><g><path d="M155.999 0H6a6 6 0 0 0-6 6v36a6 6 0 0 0 6 6h149.999a6 6 0 0 0 6-6V6a6 6 0 0 0-6-6z"/></g><g><path fill="#a6a6a6" d="M155.999.96a5.044 5.044 0 0 1 5.04 5.04v36a5.043 5.043 0 0 1-5.04 5.04H6A5.046 5.046 0 0 1 .96 42V6A5.046 5.046 0 0 1 6 .96zM6 0a6.018 6.018 0 0 0-6 6v36a6.018 6.018 0 0 0 6 6h149.999a6.02 6.02 0 0 0 6-6V6a6.015 6.015 0 0 0-6-6z"/></g><g><path fill="#fff" d="M56.9 12.293a3.249 3.249 0 0 1-.894 2.404 3.49 3.49 0 0 1-2.645 1.065 3.708 3.708 0 0 1-3.74-3.76 3.709 3.709 0 0 1 3.74-3.762 3.714 3.714 0 0 1 1.478.302c.433.176.82.451 1.126.804l-.633.634a2.431 2.431 0 0 0-1.971-.855 2.783 2.783 0 0 0-2.796 2.876 2.83 2.83 0 0 0 4.807 2.072c.37-.398.583-.916.603-1.458h-2.614v-.865h3.489c.033.18.05.36.05.543z"/><path fill="none" stroke="#fff" stroke-miterlimit="20" stroke-width=".2" d="M56.9 12.293a3.249 3.249 0 0 1-.894 2.404 3.49 3.49 0 0 1-2.645 1.065 3.708 3.708 0 0 1-3.74-3.76 3.709 3.709 0 0 1 3.74-3.762 3.714 3.714 0 0 1 1.478.302c.433.176.82.451 1.126.804l-.633.634a2.431 2.431 0 0 0-1.971-.855 2.783 2.783 0 0 0-2.796 2.876 2.83 2.83 0 0 0 4.807 2.072c.37-.398.583-.916.603-1.458h-2.614v0-.865 0h3.489c.033.18.05.36.05.543z"/></g><g><path fill="#fff" d="M62.433 9.285h-3.278v2.283h2.956v.864h-2.956v2.283h3.278v.885H58.23V8.4h4.203z"/><path fill="none" stroke="#fff" stroke-miterlimit="20" stroke-width=".2" d="M62.433 9.285v0h-3.278v2.283h2.956v.864h-2.956v2.283h3.278v.885H58.23v0-7.2 0h4.203v0z"/></g><g><path fill="#fff" d="M66.337 15.6h-.926V9.285H63.4V8.4h4.948v.885h-2.011z"/><path fill="none" stroke="#fff" stroke-miterlimit="20" stroke-width=".2" d="M66.337 15.6v0h-.926v0-6.315 0H63.4v0V8.4v0h4.948v.885h-2.011v0z"/></g><g><path fill="#fff" d="M71.93 15.6V8.4h.925v7.2z"/><path fill="none" stroke="#fff" stroke-miterlimit="20" stroke-width=".2" d="M71.93 15.6v0-7.2 0h.925v7.2z"/></g><g><path fill="#fff" d="M76.957 15.6h-.926V9.285H74.02V8.4h4.948v.885h-2.011z"/><path fill="none" stroke="#fff" stroke-miterlimit="20" stroke-width=".2" d="M76.957 15.6v0h-.926v0-6.315 0H74.02v0V8.4v0h4.948v.885h-2.011v0z"/></g><g><path fill="#fff" d="M88.33 14.67a3.739 3.739 0 0 1-5.278 0 3.68 3.68 0 0 1-1.061-2.669 3.68 3.68 0 0 1 1.06-2.67 3.726 3.726 0 0 1 5.275.005 3.681 3.681 0 0 1 1.065 2.665 3.686 3.686 0 0 1-1.06 2.67zm-4.595-.602a2.768 2.768 0 0 0 3.911 0 2.818 2.818 0 0 0 .8-2.067 2.818 2.818 0 0 0-.8-2.066 2.768 2.768 0 0 0-3.911 0 2.821 2.821 0 0 0-.8 2.066 2.821 2.821 0 0 0 .8 2.067z"/><path fill="none" stroke="#fff" stroke-miterlimit="20" stroke-width=".2" d="M88.33 14.67a3.739 3.739 0 0 1-5.278 0 3.68 3.68 0 0 1-1.061-2.669 3.68 3.68 0 0 1 1.06-2.67 3.726 3.726 0 0 1 5.275.005 3.681 3.681 0 0 1 1.065 2.665 3.686 3.686 0 0 1-1.06 2.67zm-4.595-.602a2.768 2.768 0 0 0 3.911 0 2.818 2.818 0 0 0 .8-2.067 2.818 2.818 0 0 0-.8-2.066 2.768 2.768 0 0 0-3.911 0 2.821 2.821 0 0 0-.8 2.066 2.821 2.821 0 0 0 .8 2.067z"/></g><g><path fill="#fff" d="M90.69 15.6V8.4h1.126l3.5 5.601h.04l-.04-1.388V8.4h.925v7.2h-.965l-3.661-5.872h-.04l.04 1.387V15.6z"/><path fill="none" stroke="#fff" stroke-miterlimit="20" stroke-width=".2" d="M90.69 15.6v0-7.2 0h1.126v0l3.5 5.601v0h.04v0l-.04-1.388v0V8.4v0h.925v7.2h-.965v0l-3.661-5.872v0h-.04v0l.04 1.387V15.6z"/></g><g><path fill="#fff" d="M83.734 26.469a5.03 5.03 0 0 1 3.152 4.74 5.103 5.103 0 1 1-5.123-5.103 5.031 5.031 0 0 1 1.97.363zm-.83 7.576a2.952 2.952 0 0 0 1.74-2.835 3.101 3.101 0 1 0-2.88 3.093c.393-.01.78-.097 1.14-.258zm-10.346-7.576a5.03 5.03 0 0 1 3.152 4.74 5.104 5.104 0 1 1-5.123-5.103 5.03 5.03 0 0 1 1.97.363zm-.83 7.576a2.952 2.952 0 0 0 1.74-2.835 3.1 3.1 0 1 0-2.881 3.093c.394-.01.782-.097 1.141-.258zm-7.147-6.373c.082.446.121.9.116 1.353a7.154 7.154 0 0 1-1.875 5.065 7.245 7.245 0 0 1-5.53 2.224 7.928 7.928 0 1 1 0-15.853 7.553 7.553 0 0 1 5.433 2.185l-1.527 1.527a5.522 5.522 0 0 0-3.905-1.547 5.762 5.762 0 0 0 0 11.522 5.305 5.305 0 0 0 4.001-1.585 4.52 4.52 0 0 0 1.18-2.726h-5.181v-2.165zm47.313 2.262l-6.824 2.822a2.596 2.596 0 0 0 2.475 1.547 2.915 2.915 0 0 0 2.513-1.411l1.74 1.16a5.077 5.077 0 0 1-4.253 2.262 4.996 4.996 0 0 1-5.066-5.104 4.85 4.85 0 0 1 4.814-5.104 4.743 4.743 0 0 1 4.37 3.248zm-2.629-.773a1.976 1.976 0 0 0-1.895-1.083 2.8 2.8 0 0 0-2.667 2.977zm-10.11-8.159h2.242v15.002h-2.243zm-3.674 5.413h2.127v9.164c0 3.77-2.224 5.316-4.853 5.316a4.864 4.864 0 0 1-4.524-3.015l1.953-.813a2.823 2.823 0 0 0 2.571 1.818c1.682 0 2.726-1.044 2.726-2.997v-.734h-.077a3.48 3.48 0 0 1-2.688 1.16 5.109 5.109 0 0 1 0-10.208 3.537 3.537 0 0 1 2.688 1.14h.077zm-1.465 7.615a2.853 2.853 0 0 0 1.62-2.8 2.875 2.875 0 0 0-2.726-3.113 3.104 3.104 0 0 0 0 6.186c.383-.016.76-.109 1.106-.273zm28.15-13.027a4.666 4.666 0 1 1 0 9.318h-3.126v5.683h-2.239V21.003zm.059 7.23a2.572 2.572 0 1 0 0-5.143h-3.185v5.143zm18.392 1.995v5.751h-2.161v-1.158h-.077a3.16 3.16 0 0 1-2.857 1.467 3.466 3.466 0 0 1-3.725-3.3c0-2.2 2.181-3.378 4.324-3.378a4.953 4.953 0 0 1 2.335.58v-.155a2.156 2.156 0 0 0-2.355-1.93 2.121 2.121 0 0 0-2.046 1.1l-1.988-.83a4.205 4.205 0 0 1 3.996-2.297c2.567 0 4.554 1.487 4.554 4.15zm-3.048 3.384c.49-.436.805-1.035.887-1.686a3.989 3.989 0 0 0-2.046-.502c-1.1 0-2.374.444-2.374 1.602 0 .907 1.023 1.274 1.756 1.274a2.714 2.714 0 0 0 1.777-.688zm13.412-7.205l-6.156 14.146h-2.335l2.277-5.056-3.995-9.09h2.412l2.664 6.503h.077l2.567-6.503zm-22.658-5.404h2.24v15.001h-2.24z"/></g><g><path fill="url(#t0ota)" d="M12.52 9.047a2.403 2.403 0 0 0-.556 1.686v26.54a2.402 2.402 0 0 0 .556 1.685l.089.087 14.866-14.867v-.35L12.61 8.96z"/></g><g><path fill="url(#t0otb)" d="M32.435 29.135l-4.955-4.958v-.35l4.956-4.957.112.064 5.871 3.336c1.678.953 1.678 2.512 0 3.465l-5.87 3.336z"/></g><g><path fill="url(#t0otc)" d="M32.544 29.069L27.476 24 12.52 38.955a1.952 1.952 0 0 0 2.494.074z"/></g><g><path fill="url(#t0otd)" d="M32.544 18.935l-17.53-9.96a1.952 1.952 0 0 0-2.494.073l14.956 14.956z"/></g><g opacity=".2"><path d="M32.432 28.96l-17.418 9.897a1.999 1.999 0 0 1-2.405.013l-.089.089.089.086a1.998 1.998 0 0 0 2.405-.013l17.53-9.96z"/></g><g opacity=".12"><path d="M12.52 38.786a2.403 2.403 0 0 1-.556-1.686v.175a2.403 2.403 0 0 0 .556 1.686l.09-.09z"/></g><g opacity=".12"><path d="M38.413 25.557l-5.983 3.4.112.111 5.871-3.336A2.106 2.106 0 0 0 39.671 24a2.235 2.235 0 0 1-1.258 1.557z"/></g><g opacity=".25"><path fill="#fff" d="M15.02 9.15l23.4 13.295a2.234 2.234 0 0 1 1.258 1.557 2.103 2.103 0 0 0-1.258-1.732L15.02 8.974c-1.678-.953-3.05-.161-3.05 1.76v.175c0-1.921 1.372-2.713 3.05-1.76z"/></g></g></g></svg>