<svg xmlns="http://www.w3.org/2000/svg" width="18" height="18" viewBox="0 0 18 18"><g><g><path fill="#fff" d="M9.003.47c2.317 0 2.607.01 3.517.052.908.041 1.529.185 2.073.396.561.218 1.036.51 1.51.984.475.474.767.95.986 1.512.21.542.353 1.162.396 2.07.041.911.052 1.202.052 3.52 0 2.317-.011 2.607-.052 3.517-.043.908-.187 1.529-.396 2.071a4.19 4.19 0 0 1-.985 1.512c-.474.475-.95.767-1.51.985-.544.21-1.165.355-2.073.396-.91.042-1.2.052-3.518.052-2.317 0-2.608-.01-3.518-.052-.908-.041-1.529-.185-2.072-.396a4.177 4.177 0 0 1-1.51-.985 4.182 4.182 0 0 1-.985-1.512c-.21-.542-.355-1.162-.396-2.07C.48 11.61.47 11.32.47 9.002c0-2.317.01-2.608.051-3.518.041-.908.185-1.529.397-2.071a4.19 4.19 0 0 1 .985-1.512c.474-.474.95-.766 1.511-.984C3.957.707 4.577.563 5.486.522 6.396.48 6.686.47 9.003.47zm-.764 1.536c-1.59.001-1.896.012-2.683.048-.832.038-1.284.177-1.585.294-.398.155-.682.34-.981.638a2.644 2.644 0 0 0-.639.982c-.116.3-.255.752-.293 1.584-.041.9-.05 1.169-.05 3.447 0 2.28.009 2.55.05 3.449.037.832.177 1.283.293 1.584.155.398.34.682.639.98.299.3.583.484.981.639.301.117.753.256 1.585.294.9.041 1.17.05 3.448.05 2.279 0 2.549-.009 3.448-.05.832-.038 1.284-.177 1.585-.294a2.64 2.64 0 0 0 .98-.638c.299-.299.484-.582.639-.98.117-.3.256-.752.294-1.584.04-.9.05-1.17.05-3.448 0-2.277-.01-2.547-.05-3.447-.038-.832-.177-1.283-.294-1.584a2.648 2.648 0 0 0-.639-.981 2.639 2.639 0 0 0-.98-.638c-.301-.117-.753-.256-1.585-.294-.9-.041-1.17-.05-3.448-.05H8.24zm6.344 2.442a1.024 1.024 0 1 1-2.048 0 1.024 1.024 0 0 1 2.048 0zm-1.197 4.555a4.382 4.382 0 1 1-8.764 0 4.382 4.382 0 0 1 8.764 0zm-7.226 0a2.844 2.844 0 1 0 5.689 0 2.844 2.844 0 0 0-5.69 0z"/></g></g></svg>