<svg xmlns="http://www.w3.org/2000/svg" width="18" height="18" viewBox="0 0 18 18"><g><g><path fill="#fff" d="M17.537 8.992a8.535 8.535 0 0 1-.672 3.316 8.6 8.6 0 0 1-3.09 3.749 8.627 8.627 0 0 1-1.45.785 8.576 8.576 0 0 1-6.644 0 8.635 8.635 0 0 1-1.45-.785 8.604 8.604 0 0 1-3.09-3.749 8.492 8.492 0 0 1-.498-5.032 8.473 8.473 0 0 1 1.285-3.05 8.604 8.604 0 0 1 2.303-2.3A8.45 8.45 0 0 1 7.284.643a8.599 8.599 0 0 1 5.04.496 8.565 8.565 0 0 1 4.541 4.535 8.528 8.528 0 0 1 .672 3.317zM5.894 2.409a7.288 7.288 0 0 0-4.022 5.082c.192.002 3.229.04 6.728-.888a43.815 43.815 0 0 0-2.706-4.194zm3.31 5.314C5.45 8.845 1.85 8.764 1.72 8.76c-.002.079-.006.154-.006.232a7.24 7.24 0 0 0 1.868 4.863c-.003-.004 1.991-3.537 5.924-4.807a7.11 7.11 0 0 1 .288-.087 24.598 24.598 0 0 0-.592-1.237zm4.612-4.193a7.258 7.258 0 0 0-4.813-1.815c-.592 0-1.167.072-1.717.204.109.146 1.478 1.96 2.724 4.245 2.75-1.03 3.788-2.607 3.806-2.634zm-3.525 6.636l-.048.015c-4.3 1.497-5.704 4.514-5.719 4.547a7.279 7.279 0 0 0 4.479 1.54c1.01 0 1.97-.205 2.845-.577-.108-.635-.531-2.864-1.557-5.525zm2.784 4.86a7.279 7.279 0 0 0 3.123-4.881c-.15-.048-2.189-.693-4.541-.316.956 2.623 1.344 4.759 1.418 5.197zm-2.504-7.778a22.953 22.953 0 0 1 .642 1.432c2.503-.314 4.97.215 5.075.237a7.233 7.233 0 0 0-1.657-4.548c-.014.02-1.183 1.706-4.06 2.88z"/></g></g></svg>